<svg xmlns="http://www.w3.org/2000/svg" viewBox="0 0 400 300" width="406" height="306" class="illustration styles_illustrationTablet__1DWOa"><g id="_525_twitter_outline" data-name="#525_twitter_outline"><rect x="136.35" y="79.02" width="127.31" height="171.11" fill="#fff"></rect><path d="M263.65,251.12H136.35a1,1,0,0,1-1-1V79a1,1,0,0,1,1-1h127.3a1,1,0,0,1,1,1v171.1A1,1,0,0,1,263.65,251.12Zm-126.3-2h125.3V80H137.35Z" fill="#093f68"></path><rect x="136.35" y="49.87" width="127.31" height="29.14" fill="#68e1fd"></rect><path d="M263.65,80H136.35a1,1,0,0,1-1-1V49.88a1,1,0,0,1,1-1h127.3a1,1,0,0,1,1,1V79A1,1,0,0,1,263.65,80Zm-126.3-2h125.3V50.88H137.35Z" fill="#093f68"></path><circle cx="154.11" cy="63.51" r="7.13" fill="#093f68"></circle><path d="M154.11,71.64a8.13,8.13,0,1,1,8.13-8.13A8.14,8.14,0,0,1,154.11,71.64Zm0-14.26a6.13,6.13,0,1,0,6.13,6.13A6.13,6.13,0,0,0,154.11,57.38Z" fill="#093f68"></path><path d="M189.21,65.45h-21a1,1,0,0,1,0-2h21a1,1,0,0,1,0,2Z" fill="#093f68"></path><path d="M245.2,68.78a6,6,0,1,1,4.22-10.19h0a6,6,0,0,1-4.22,10.19Zm0-9.94A4,4,0,1,0,248,60h0A4,4,0,0,0,245.2,58.84Z" fill="#093f68"></path><path d="M253.89,72.5a1,1,0,0,1-.7-.29L248,67a1,1,0,0,1,0-1.42,1,1,0,0,1,1.41,0l5.18,5.18a1,1,0,0,1,0,1.41A1,1,0,0,1,253.89,72.5Z" fill="#093f68"></path><circle cx="159.61" cy="101.56" r="12.62" fill="#dfeaef"></circle><path d="M252.66,92.94H236.14a1,1,0,0,1,0-2h16.52a1,1,0,1,1,0,2Z" fill="#dfeaef"></path><path d="M229.76,92.94H182.83a1,1,0,1,1,0-2h46.93a1,1,0,0,1,0,2Z" fill="#dfeaef"></path><path d="M252.66,102.23h-27a1,1,0,0,1,0-2h27a1,1,0,0,1,0,2Z" fill="#dfeaef"></path><path d="M213.24,102.23H182.83a1,1,0,0,1,0-2h30.41a1,1,0,0,1,0,2Z" fill="#dfeaef"></path><path d="M233,111.53H182.83a1,1,0,0,1,0-2H233a1,1,0,0,1,0,2Z" fill="#dfeaef"></path><path d="M189.21,124.2h-6.38a1,1,0,0,1,0-2h6.38a1,1,0,0,1,0,2Z" fill="#dfeaef"></path><path d="M213.24,124.2H196.81a1,1,0,0,1,0-2h16.43a1,1,0,0,1,0,2Z" fill="#dfeaef"></path><path d="M223.38,124.2h-5.63a1,1,0,0,1,0-2h5.63a1,1,0,0,1,0,2Z" fill="#dfeaef"></path><path d="M236.14,124.2h-6.38a1,1,0,0,1,0-2h6.38a1,1,0,0,1,0,2Z" fill="#dfeaef"></path><circle cx="159.61" cy="148.34" r="12.62" fill="#dfeaef"></circle><path d="M252.66,139.72H236.14a1,1,0,0,1,0-2h16.52a1,1,0,0,1,0,2Z" fill="#dfeaef"></path><path d="M229.76,139.72H182.83a1,1,0,0,1,0-2h46.93a1,1,0,0,1,0,2Z" fill="#dfeaef"></path><path d="M252.66,149h-27a1,1,0,0,1,0-2h27a1,1,0,0,1,0,2Z" fill="#dfeaef"></path><path d="M213.24,149H182.83a1,1,0,0,1,0-2h30.41a1,1,0,0,1,0,2Z" fill="#dfeaef"></path><path d="M189.21,210.35h-6.38a1,1,0,0,1,0-2h6.38a1,1,0,0,1,0,2Z" fill="#dfeaef"></path><path d="M213.24,210.35H196.81a1,1,0,0,1,0-2h16.43a1,1,0,0,1,0,2Z" fill="#dfeaef"></path><path d="M223.38,210.35h-5.63a1,1,0,0,1,0-2h5.63a1,1,0,0,1,0,2Z" fill="#dfeaef"></path><path d="M236.14,210.35h-6.38a1,1,0,0,1,0-2h6.38a1,1,0,0,1,0,2Z" fill="#dfeaef"></path><rect x="180.02" y="158.67" width="72.64" height="39.98" fill="#dfeaef"></rect><path d="M257.72,225H142.28a1,1,0,1,1,0-2H257.72a1,1,0,0,1,0,2Z" fill="#dfeaef"></path><path d="M168.19,235.69H147a1,1,0,1,1,0-2h21.21a1,1,0,0,1,0,2Z" fill="#dfeaef"></path><circle cx="241.83" cy="228.74" r="12.07" fill="#68e1fd"></circle><path d="M241.83,241.81a13.07,13.07,0,1,1,13.06-13.07A13.08,13.08,0,0,1,241.83,241.81Zm0-24.14a11.07,11.07,0,1,0,11.06,11.07A11.08,11.08,0,0,0,241.83,217.67Z" fill="#093f68"></path><path d="M236,230.27a1,1,0,0,1-1-1v-5.64a1,1,0,0,1,1-1h4a1,1,0,0,1,0,2h-3v4.64A1,1,0,0,1,236,230.27Z" fill="#093f68"></path><path d="M247.86,234.7h-5.2a1,1,0,0,1,0-2h4.2v-3.43a1,1,0,1,1,2,0v4.43A1,1,0,0,1,247.86,234.7Z" fill="#093f68"></path><path d="M237.26,234.56a3,3,0,0,1,.26-1.49,40.64,40.64,0,0,1,5-8.46c.29-.35,4.56-4.26,5.05-3,.25.65-2.6,3.66-2.6,3.66s2.36-1.38,2.2-.32-3.34,2.68-3.34,2.68,2-.72,1.14.35a5.36,5.36,0,0,1-2,1.38,11,11,0,0,0-1.77,1.19,12,12,0,0,0-2.18,2.26c-.4.52-.68,1.13-1.13,1.61S237.31,234.85,237.26,234.56Z" fill="#093f68"></path></g></svg>